<svg width="142" height="28" viewBox="0 0 142 28" fill="none" xmlns="http://www.w3.org/2000/svg">
<rect width="142" height="28" rx="14" fill="url(#paint0_linear)"/>
<path d="M135.642 14.5825L127.843 8.41748L126.603 9.63107L132.905 14.5825L126.603 19.4854L127.843 20.699L135.642 14.5825Z" fill="white"/>
<path fill-rule="evenodd" clip-rule="evenodd" d="M120.515 17.9981C120.999 19.589 120.868 22.5235 116 22.8475C116.403 22.6202 117.113 21.7021 117.044 19.876C116.976 18.0775 117.974 17.3027 118.66 17.1657C118.982 17.1657 119.741 17.2708 120.515 17.9981ZM117.667 20.1107C117.748 19.5047 118.111 18.4526 119.288 17.7451C117.562 17.9843 117.349 19.4208 117.667 20.1107Z" fill="white"/>
<path d="M121.747 15.7219C121.586 16.0975 121.21 16.4361 120.697 17.0671C120.462 16.8044 119.942 16.6086 119.942 16.6086C119.942 16.6086 119.415 16.4161 119.051 16.4534C119.144 15.664 119.12 15.175 119.28 14.7993C119.944 12.8564 124.439 4.85887 125.1 4.50685C125.32 5.1905 122.694 13.8859 121.747 15.7219Z" fill="white"/>
<path d="M23.1489 9.21777H20.3936V7.89111H24.7817V19.6548H27.5557V21H20.0874V19.6548H23.1489V9.21777Z" fill="white"/>
<path d="M38.707 11.6855L35.5342 20.0166C35.2064 20.8639 34.8662 21.5938 34.5137 22.2061C34.1673 22.8184 33.7869 23.3193 33.3726 23.709C32.9582 24.1048 32.5036 24.3955 32.0088 24.5811C31.514 24.7666 30.9604 24.8594 30.3481 24.8594C30.1873 24.8594 30.042 24.8563 29.9121 24.8501C29.7822 24.8439 29.64 24.8346 29.4854 24.8223V23.3564C29.6214 23.375 29.7699 23.3905 29.9307 23.4028C30.0915 23.4214 30.2616 23.4307 30.4409 23.4307C30.7378 23.4307 31.013 23.3874 31.2666 23.3008C31.5264 23.2142 31.7707 23.0719 31.9995 22.874C32.2284 22.6823 32.4479 22.4318 32.6582 22.1226C32.8685 21.8133 33.0726 21.4391 33.2705 21L29.5503 11.6855H31.3872L33.7437 17.8457L34.2168 19.293L34.7549 17.8086L36.9351 11.6855H38.707Z" fill="white"/>
<path d="M41.249 11.6855H42.7241L42.7705 13.4019C43.321 12.7401 43.8621 12.2607 44.394 11.9639C44.9321 11.667 45.4733 11.5186 46.0176 11.5186C46.9824 11.5186 47.7122 11.8309 48.207 12.4556C48.708 13.0802 48.9399 14.008 48.9028 15.2388H47.27C47.2886 14.4224 47.168 13.8317 46.9082 13.4668C46.6546 13.0957 46.2804 12.9102 45.7856 12.9102C45.5692 12.9102 45.3496 12.9504 45.127 13.0308C44.9105 13.105 44.6847 13.2287 44.4497 13.4019C44.2209 13.5688 43.9766 13.7853 43.7168 14.0513C43.457 14.3172 43.1787 14.6388 42.8818 15.0161V21H41.249V11.6855Z" fill="white"/>
<path d="M54.4878 13.0215H51.7324V11.6855H56.1206V19.6548H58.8945V21H51.4263V19.6548H54.4878V13.0215ZM55.0537 7.77979C55.2331 7.77979 55.4001 7.8138 55.5547 7.88184C55.7093 7.94368 55.8423 8.03337 55.9536 8.15088C56.0711 8.26839 56.1608 8.40446 56.2227 8.55908C56.2907 8.70752 56.3247 8.87142 56.3247 9.05078C56.3247 9.22396 56.2907 9.38786 56.2227 9.54248C56.1608 9.6971 56.0711 9.83317 55.9536 9.95068C55.8423 10.0682 55.7093 10.161 55.5547 10.229C55.4001 10.2909 55.2331 10.3218 55.0537 10.3218C54.8743 10.3218 54.7074 10.2909 54.5527 10.229C54.3981 10.161 54.262 10.0682 54.1445 9.95068C54.0332 9.83317 53.9435 9.6971 53.8755 9.54248C53.8136 9.38786 53.7827 9.22396 53.7827 9.05078C53.7827 8.87142 53.8136 8.70752 53.8755 8.55908C53.9435 8.40446 54.0332 8.26839 54.1445 8.15088C54.262 8.03337 54.3981 7.94368 54.5527 7.88184C54.7074 7.8138 54.8743 7.77979 55.0537 7.77979Z" fill="white"/>
<path d="M68.9976 20.6567C68.577 20.8175 68.144 20.9351 67.6987 21.0093C67.2596 21.0897 66.805 21.1299 66.335 21.1299C64.863 21.1299 63.728 20.731 62.9302 19.9331C62.1385 19.1353 61.7427 17.9694 61.7427 16.4355C61.7427 15.6995 61.8571 15.0316 62.0859 14.4316C62.3148 13.8317 62.6364 13.3184 63.0508 12.8916C63.4652 12.4648 63.96 12.137 64.5352 11.9082C65.1104 11.6732 65.7443 11.5557 66.437 11.5557C66.9194 11.5557 67.3709 11.5897 67.7915 11.6577C68.2121 11.7257 68.6141 11.8371 68.9976 11.9917V13.5317C68.5955 13.3215 68.1842 13.1699 67.7637 13.0771C67.3493 12.9782 66.9194 12.9287 66.4741 12.9287C66.0597 12.9287 65.667 13.0091 65.2959 13.1699C64.931 13.3245 64.6094 13.5503 64.3311 13.8472C64.0527 14.144 63.8332 14.5059 63.6724 14.9326C63.5116 15.3594 63.4312 15.8418 63.4312 16.3799C63.4312 17.5055 63.7033 18.3498 64.2476 18.9126C64.798 19.4692 65.5588 19.7476 66.5298 19.7476C66.9689 19.7476 67.3926 19.6981 67.8008 19.5991C68.2152 19.5002 68.6141 19.3517 68.9976 19.1538V20.6567Z" fill="white"/>
<path d="M80.1675 16.1758C80.1675 16.9489 80.0592 17.6416 79.8428 18.2539C79.6325 18.86 79.3294 19.3765 78.9336 19.8032C78.5439 20.2238 78.0677 20.5485 77.5049 20.7773C76.9421 21 76.3081 21.1113 75.603 21.1113C75.0526 21.1113 74.4897 21.0588 73.9146 20.9536C73.3394 20.8485 72.7703 20.6815 72.2075 20.4526V7.89111H73.8218V11.5L73.7476 13.2256C74.2114 12.6009 74.7062 12.1618 75.2319 11.9082C75.7638 11.6484 76.3328 11.5186 76.939 11.5186C77.4709 11.5186 77.9378 11.6299 78.3398 11.8525C78.7419 12.0752 79.0789 12.3906 79.3511 12.7988C79.6232 13.2008 79.8273 13.6895 79.9634 14.2646C80.0994 14.8337 80.1675 15.4707 80.1675 16.1758ZM78.5161 16.25C78.5161 15.7614 78.479 15.313 78.4048 14.9048C78.3368 14.4966 78.2254 14.1471 78.0708 13.8564C77.9162 13.5658 77.7183 13.34 77.4771 13.1792C77.2358 13.0122 76.9482 12.9287 76.6143 12.9287C76.4102 12.9287 76.203 12.9627 75.9927 13.0308C75.7824 13.0926 75.5628 13.2008 75.334 13.3555C75.1113 13.5039 74.8732 13.7049 74.6196 13.9585C74.3722 14.2059 74.1063 14.5151 73.8218 14.8862V19.4043C74.1372 19.528 74.4588 19.627 74.7866 19.7012C75.1144 19.7692 75.4268 19.8032 75.7236 19.8032C76.0947 19.8032 76.4473 19.7445 76.7812 19.627C77.1214 19.5094 77.4183 19.3146 77.6719 19.0425C77.9316 18.7642 78.1357 18.3993 78.2842 17.9478C78.4388 17.4901 78.5161 16.9242 78.5161 16.25Z" fill="white"/>
<path d="M85.8267 9.21777H83.0713V7.89111H87.4595V19.6548H90.2334V21H82.7651V19.6548H85.8267V9.21777Z" fill="white"/>
<path d="M101.208 16.2686C101.208 16.9922 101.106 17.6571 100.902 18.2632C100.698 18.8631 100.404 19.3796 100.021 19.8125C99.6375 20.2393 99.1706 20.5732 98.6201 20.8145C98.0697 21.0495 97.445 21.167 96.7461 21.167C96.0781 21.167 95.4782 21.0649 94.9463 20.8608C94.4206 20.6506 93.9722 20.3444 93.6011 19.9424C93.2362 19.5404 92.9548 19.0425 92.7568 18.4487C92.5651 17.855 92.4692 17.1715 92.4692 16.3984C92.4692 15.6748 92.5713 15.0161 92.7754 14.4224C92.9795 13.8224 93.2733 13.3091 93.6567 12.8823C94.0402 12.4494 94.5072 12.1154 95.0576 11.8804C95.6081 11.6392 96.2327 11.5186 96.9316 11.5186C97.5996 11.5186 98.1964 11.6237 98.7222 11.834C99.2541 12.0381 99.7025 12.3411 100.067 12.7432C100.438 13.139 100.72 13.6338 100.912 14.2275C101.11 14.8213 101.208 15.5016 101.208 16.2686ZM99.5571 16.3428C99.5571 15.7676 99.4922 15.2666 99.3623 14.8398C99.2386 14.4069 99.0592 14.0482 98.8242 13.7637C98.5892 13.473 98.3016 13.2565 97.9614 13.1143C97.6274 12.9658 97.2533 12.8916 96.8389 12.8916C96.3564 12.8916 95.9421 12.9875 95.5957 13.1792C95.2555 13.3647 94.9741 13.6152 94.7515 13.9307C94.535 14.2461 94.3742 14.6141 94.269 15.0347C94.1701 15.4491 94.1206 15.8851 94.1206 16.3428C94.1206 16.918 94.1825 17.422 94.3062 17.855C94.436 18.2879 94.6185 18.6497 94.8535 18.9404C95.0885 19.2249 95.373 19.4414 95.707 19.5898C96.041 19.7321 96.4183 19.8032 96.8389 19.8032C97.3213 19.8032 97.7326 19.7104 98.0728 19.5249C98.4191 19.3332 98.7005 19.0796 98.917 18.7642C99.1396 18.4487 99.3005 18.0838 99.3994 17.6694C99.5046 17.2489 99.5571 16.8066 99.5571 16.3428Z" fill="white"/>
<path d="M110.254 13.0029C110.427 13.2194 110.56 13.473 110.653 13.7637C110.752 14.0482 110.801 14.3574 110.801 14.6914C110.801 15.1738 110.712 15.616 110.532 16.0181C110.359 16.4139 110.112 16.7541 109.79 17.0386C109.468 17.3231 109.082 17.5457 108.63 17.7065C108.185 17.8612 107.693 17.9385 107.155 17.9385C106.766 17.9385 106.401 17.8983 106.061 17.8179C105.72 17.7313 105.451 17.6261 105.253 17.5024C105.136 17.6756 105.037 17.8395 104.957 17.9941C104.876 18.1488 104.836 18.3219 104.836 18.5137C104.836 18.7487 104.947 18.9435 105.17 19.0981C105.399 19.2528 105.699 19.3363 106.07 19.3486L108.519 19.4414C108.983 19.4538 109.41 19.5125 109.799 19.6177C110.195 19.7228 110.532 19.8743 110.811 20.0723C111.095 20.2702 111.315 20.5145 111.469 20.8052C111.63 21.0959 111.71 21.4329 111.71 21.8164C111.71 22.2308 111.621 22.6235 111.441 22.9946C111.262 23.3657 110.984 23.6904 110.606 23.9688C110.235 24.2533 109.762 24.479 109.187 24.646C108.612 24.813 107.928 24.8965 107.137 24.8965C106.382 24.8965 105.739 24.8346 105.207 24.7109C104.681 24.5934 104.248 24.4264 103.908 24.21C103.568 23.9997 103.321 23.7461 103.166 23.4492C103.011 23.1585 102.934 22.8369 102.934 22.4844C102.934 22.0329 103.039 21.637 103.25 21.2969C103.46 20.9567 103.785 20.6289 104.224 20.3135C104.063 20.2393 103.924 20.1465 103.806 20.0352C103.689 19.9238 103.593 19.8032 103.519 19.6733C103.444 19.5373 103.389 19.395 103.352 19.2466C103.314 19.0981 103.296 18.9528 103.296 18.8105C103.296 18.4085 103.389 18.0405 103.574 17.7065C103.766 17.3726 103.992 17.0571 104.251 16.7603C104.134 16.618 104.029 16.4788 103.936 16.3428C103.849 16.2067 103.772 16.0614 103.704 15.9067C103.642 15.7459 103.593 15.5758 103.556 15.3965C103.525 15.2109 103.509 15.0007 103.509 14.7656C103.509 14.2832 103.596 13.8441 103.769 13.4482C103.948 13.0462 104.196 12.703 104.511 12.4185C104.833 12.134 105.216 11.9144 105.662 11.7598C106.113 11.599 106.611 11.5186 107.155 11.5186C107.384 11.5186 107.604 11.534 107.814 11.5649C108.024 11.5959 108.21 11.6361 108.371 11.6855H111.748V13.0029H110.254ZM104.65 22.3452C104.65 22.7843 104.879 23.1029 105.337 23.3008C105.795 23.5049 106.432 23.6069 107.248 23.6069C107.761 23.6069 108.191 23.5605 108.538 23.4678C108.89 23.375 109.172 23.2513 109.382 23.0967C109.598 22.9482 109.753 22.7751 109.846 22.5771C109.938 22.3854 109.985 22.1875 109.985 21.9834C109.985 21.6061 109.83 21.3278 109.521 21.1484C109.212 20.9691 108.739 20.8639 108.102 20.833L105.671 20.7495C105.467 20.8856 105.297 21.0186 105.161 21.1484C105.031 21.2783 104.929 21.4082 104.854 21.5381C104.78 21.6742 104.728 21.8071 104.697 21.937C104.666 22.0731 104.65 22.2091 104.65 22.3452ZM105.142 14.7285C105.142 15.0254 105.192 15.2975 105.291 15.5449C105.389 15.7923 105.529 16.0026 105.708 16.1758C105.887 16.349 106.098 16.485 106.339 16.584C106.586 16.6768 106.858 16.7231 107.155 16.7231C107.477 16.7231 107.761 16.6706 108.009 16.5654C108.262 16.4541 108.473 16.3057 108.64 16.1201C108.813 15.9346 108.943 15.7212 109.029 15.48C109.122 15.2388 109.168 14.9883 109.168 14.7285C109.168 14.4316 109.119 14.1595 109.02 13.9121C108.921 13.6647 108.782 13.4544 108.603 13.2812C108.423 13.1081 108.21 12.9751 107.962 12.8823C107.721 12.7834 107.452 12.7339 107.155 12.7339C106.834 12.7339 106.546 12.7896 106.292 12.9009C106.045 13.0122 105.835 13.1606 105.662 13.3462C105.495 13.5256 105.365 13.7358 105.272 13.9771C105.185 14.2183 105.142 14.4688 105.142 14.7285Z" fill="white"/>
<path d="M6.198 14.5825L13.9972 8.41748L15.2368 9.63107L8.93547 14.5825L15.2368 19.4854L13.9972 20.699L6.198 14.5825Z" fill="white"/>
<defs>
<linearGradient id="paint0_linear" x1="115.375" y1="2.45" x2="109.566" y2="38.7069" gradientUnits="userSpaceOnUse">
<stop stop-color="#1DDBC4"/>
<stop offset="1" stop-color="#3C1D70"/>
</linearGradient>
</defs>
</svg>
