<svg width="30" height="30" viewBox="0 0 30 30" fill="none" xmlns="http://www.w3.org/2000/svg">
<circle cx="15" cy="15" r="15" fill="#5C2395"/>
<path d="M4.3689 15.4369L9.86647 10.8131L10.7403 11.7233L6.29851 15.4369L10.7403 19.1141L9.86647 20.0243L4.3689 15.4369Z" fill="white"/>
<path fill-rule="evenodd" clip-rule="evenodd" d="M14.9322 17.9986C15.2731 19.1918 15.1805 21.3926 11.7493 21.6356C12.0334 21.4652 12.534 20.7766 12.4853 19.407C12.4374 18.0581 13.1409 17.4771 13.6243 17.3743C13.8515 17.3743 14.3867 17.4531 14.9322 17.9986ZM12.9247 19.5831C12.9815 19.1285 13.2376 18.3395 14.0669 17.8088C12.8501 17.9882 12.7006 19.0656 12.9247 19.5831Z" fill="white"/>
<path d="M15.8002 16.2914C15.6872 16.5731 15.4221 16.8271 15.0604 17.3003C14.8946 17.1033 14.5279 16.9564 14.5279 16.9564C14.5279 16.9564 14.1563 16.8121 13.9003 16.8401C13.9654 16.248 13.949 15.8813 14.0617 15.5995C14.5294 14.1423 17.698 8.14415 18.164 7.88014C18.3188 8.39288 16.4679 14.9144 15.8002 16.2914Z" fill="white"/>
<path d="M25.5947 15.4369L20.0972 10.8131L19.2234 11.7233L23.6651 15.4369L19.2234 19.1141L20.0972 20.0243L25.5947 15.4369Z" fill="white"/>
</svg>
