<svg width="18" height="18" viewBox="0 0 18 18" fill="none" xmlns="http://www.w3.org/2000/svg">
<path d="M16.4818 15.7761C16.8639 15.7761 17.195 15.6439 17.4765 15.3827L12.6602 10.3344C12.5446 10.4211 12.4326 10.5055 12.3268 10.5857C11.9664 10.864 11.6739 11.0812 11.4493 11.2368C11.2247 11.3928 10.9258 11.5518 10.5528 11.7141C10.1795 11.8767 9.83179 11.9577 9.5092 11.9577H9.49031C9.16769 11.9577 8.81994 11.8767 8.44671 11.7141C8.07347 11.5518 7.77464 11.3928 7.55026 11.2368C7.32566 11.0812 7.03329 10.864 6.67267 10.5857C6.57218 10.5084 6.46073 10.4237 6.34024 10.333L1.52301 15.3827C1.80446 15.6439 2.13578 15.7761 2.51788 15.7761H16.4818Z" fill="url(#paint0_linear)"/>
<path d="M1.95823 7.15547C1.59783 6.90362 1.27824 6.61519 1 6.2903V13.971L5.24506 9.52153C4.3958 8.90009 3.30159 8.11231 1.95823 7.15547Z" fill="url(#paint1_linear)"/>
<path d="M17.0511 7.15546C15.759 8.07213 14.6608 8.86127 13.7563 9.52331L17.9998 13.9711V6.2903C17.7277 6.60866 17.4115 6.89689 17.0511 7.15546Z" fill="url(#paint2_linear)"/>
<path d="M16.482 1.77612H2.51817C2.03101 1.77612 1.65647 1.94855 1.3941 2.29304C1.13151 2.6377 1.00043 3.06872 1.00043 3.58564C1.00043 4.00318 1.17438 4.45559 1.52212 4.94301C1.86987 5.43023 2.2399 5.81293 2.63202 6.0913C2.84699 6.25049 3.49526 6.72286 4.57683 7.50825C5.16068 7.93232 5.66843 8.30195 6.10475 8.62092C6.47666 8.89253 6.7974 9.12774 7.06222 9.32294C7.09262 9.3453 7.14043 9.38114 7.20388 9.42869C7.27225 9.48016 7.35876 9.54548 7.46549 9.62625C7.67101 9.78205 7.84175 9.90799 7.97774 10.0042C8.11354 10.1004 8.27808 10.2079 8.4711 10.3273C8.66397 10.4465 8.84588 10.5362 9.01662 10.5958C9.18739 10.6554 9.34548 10.6853 9.49091 10.6853H9.5098C9.6552 10.6853 9.81331 10.6554 9.98412 10.5958C10.1548 10.5362 10.3366 10.4467 10.5296 10.3273C10.7224 10.2079 10.8868 10.1002 11.023 10.0042C11.159 9.90799 11.3297 9.78208 11.5353 9.62625C11.6418 9.54548 11.7283 9.48013 11.7967 9.42886C11.8602 9.38111 11.9079 9.34549 11.9385 9.32294C12.1448 9.17248 12.4663 8.93824 12.8985 8.62367C13.685 8.05092 14.8433 7.20791 16.3782 6.0913C16.8398 5.75334 17.2255 5.3455 17.5355 4.86838C17.8449 4.39125 18 3.89076 18 3.36709C18 2.92956 17.8496 2.55517 17.5494 2.24335C17.249 1.93192 16.8931 1.77612 16.482 1.77612Z" fill="url(#paint3_linear)"/>
<defs>
<linearGradient id="paint0_linear" x1="14.8125" y1="3.00112" x2="6.2187" y2="15.8446" gradientUnits="userSpaceOnUse">
<stop stop-color="#1DDBC4"/>
<stop offset="1" stop-color="#3C1D70"/>
</linearGradient>
<linearGradient id="paint1_linear" x1="14.8125" y1="3.00112" x2="6.2187" y2="15.8446" gradientUnits="userSpaceOnUse">
<stop stop-color="#1DDBC4"/>
<stop offset="1" stop-color="#3C1D70"/>
</linearGradient>
<linearGradient id="paint2_linear" x1="14.8125" y1="3.00112" x2="6.2187" y2="15.8446" gradientUnits="userSpaceOnUse">
<stop stop-color="#1DDBC4"/>
<stop offset="1" stop-color="#3C1D70"/>
</linearGradient>
<linearGradient id="paint3_linear" x1="14.8125" y1="3.00112" x2="6.2187" y2="15.8446" gradientUnits="userSpaceOnUse">
<stop stop-color="#1DDBC4"/>
<stop offset="1" stop-color="#3C1D70"/>
</linearGradient>
</defs>
</svg>
