<svg width="14" height="14" viewBox="0 0 14 14" fill="none" xmlns="http://www.w3.org/2000/svg">
<path d="M13 12.6042C12.9686 10.7606 12.3419 9.08428 11.2277 7.87059C10.1199 6.66431 8.61864 6 6.99993 6C5.38122 6 3.87994 6.66431 2.77219 7.87059C1.65902 9.083 1.03273 10.757 1 12.5983C1.62945 12.8872 4.23422 14 6.99993 14C9.99062 14 12.4163 12.8938 13 12.6042Z" fill="#FFF9D7"/>
<path d="M7 6C8.65685 6 10 4.65685 10 3C10 1.34315 8.65685 0 7 0C5.34315 0 4 1.34315 4 3C4 4.65685 5.34315 6 7 6Z" fill="#FFF9D7"/>
</svg>
