<svg width="18" height="18" viewBox="0 0 18 18" fill="none" xmlns="http://www.w3.org/2000/svg">
<path fill-rule="evenodd" clip-rule="evenodd" d="M17.8919 6.63443C17.897 6.59111 17.9021 6.54776 17.9095 6.50499C18.4836 3.54768 16.2682 0.528583 12.9325 0.219593C11.6575 0.100797 10.3804 0.0335988 9.10279 0.00719967V0C9.08512 0.000303776 9.06758 0.00106897 9.05017 0.00182835C9.03319 0.00256879 9.01635 0.0033037 8.99963 0.00359991C8.98243 0.00329992 8.96537 0.00254994 8.9483 0.00179995C8.93124 0.00104997 8.91418 0.00029999 8.89698 0V0.00719967C7.61834 0.0335988 6.34127 0.100797 5.06732 0.219593C1.73109 0.529183 -0.484386 3.54708 0.0908449 6.50499C0.0982974 6.54809 0.103386 6.5918 0.10847 6.63546C0.11867 6.72306 0.12885 6.81049 0.158059 6.89257C0.324766 7.35591 0.584383 7.76798 0.843779 8.1797C0.988132 8.40882 1.13242 8.63783 1.26058 8.87551C1.72171 9.72388 5.64047 7.89514 5.13453 6.76298C5.0742 6.63013 4.95839 6.423 4.82658 6.18726C4.54289 5.67988 4.18506 5.03992 4.14664 4.72245C4.0961 4.30726 4.57337 3.98267 5.01417 3.94127C5.83533 3.86502 6.8173 3.89136 7.75811 3.9166C8.14972 3.92711 8.5342 3.93743 8.89698 3.94007V3.94127C8.91333 3.94127 8.93058 3.94112 8.9479 3.94097C8.96536 3.94082 8.98289 3.94067 8.99963 3.94067C9.01669 3.94067 9.03442 3.94082 9.05201 3.94097C9.06933 3.94112 9.08651 3.94127 9.10279 3.94127V3.94007C9.46584 3.93742 9.85061 3.92704 10.2425 3.91647C11.1831 3.8911 12.1647 3.86461 12.9856 3.94127C13.4264 3.98267 13.9037 4.30726 13.8526 4.72245C13.8145 5.03996 13.4565 5.68006 13.1727 6.18747C13.0408 6.42313 12.925 6.63016 12.8647 6.76298C12.3598 7.89514 16.2786 9.72388 16.7397 8.87551C16.8681 8.63674 17.013 8.40672 17.158 8.17654C17.4167 7.76587 17.6758 7.35472 17.8417 6.89257C17.8714 6.81017 17.8816 6.72238 17.8919 6.63443Z" fill="url(#paint0_linear)"/>
<path fill-rule="evenodd" clip-rule="evenodd" d="M15.2818 10.2399C14.0699 9.91292 12.5203 9.05855 11.9592 7.99779C11.645 7.40741 11.6121 6.74143 11.8659 6.17265C11.88 6.14205 11.9044 6.09585 11.9227 6.05985C11.9081 5.93445 11.9336 5.76826 12.0123 5.55167C12.018 5.53727 12.0186 5.53547 12.0227 5.52527H5.7947C5.79783 5.53367 5.79783 5.53367 5.802 5.54447L5.80252 5.54567C5.94216 5.79646 6.06408 6.02085 6.12921 6.16545C6.38713 6.74203 6.35378 7.40741 6.04063 7.99839C5.47791 9.06035 3.92885 9.91412 2.71586 10.2411L2.38083 16.7107C2.34436 17.4205 2.74816 18.0001 3.27859 18.0001H14.7196C15.2501 18.0001 15.6534 17.4199 15.6164 16.7107L15.2818 10.2399ZM6.0547 14.6954H7.12909C7.32657 14.6954 7.48757 14.51 7.48757 14.2826C7.48757 14.0552 7.32657 13.8698 7.12909 13.8698H6.0547C5.85671 13.8698 5.69622 14.0552 5.69622 14.2826C5.69622 14.51 5.85671 14.6954 6.0547 14.6954ZM6.0547 13.1222H7.12909C7.32657 13.1222 7.48757 12.9374 7.48757 12.71C7.48757 12.4808 7.32657 12.2972 7.12909 12.2972H6.0547C5.85671 12.2972 5.69622 12.4808 5.69622 12.71C5.69622 12.9374 5.85671 13.1222 6.0547 13.1222ZM6.0547 11.5491H7.12909C7.32657 11.5491 7.48757 11.3637 7.48757 11.1363C7.48757 10.9089 7.32657 10.7235 7.12909 10.7235H6.0547C5.85671 10.7235 5.69622 10.9089 5.69622 11.1363C5.69622 11.3643 5.85671 11.5491 6.0547 11.5491ZM8.46296 14.6954H9.53683C9.73431 14.6954 9.89479 14.51 9.89583 14.2826C9.89583 14.0552 9.73483 13.8698 9.53735 13.8698H8.46296C8.26549 13.8698 8.10448 14.0552 8.10448 14.2826C8.10448 14.51 8.26497 14.6954 8.46296 14.6954ZM8.46296 13.1222H9.53683C9.73431 13.1222 9.89479 12.9374 9.89583 12.71C9.89583 12.4808 9.73483 12.2972 9.53735 12.2972H8.46296C8.26549 12.2972 8.10448 12.4808 8.10448 12.71C8.10448 12.9374 8.26497 13.1222 8.46296 13.1222ZM8.46296 11.5491H9.53683C9.73431 11.5491 9.89479 11.3637 9.89583 11.1363C9.89583 10.9089 9.73483 10.7235 9.53735 10.7235H8.46296C8.26549 10.7235 8.10448 10.9089 8.10448 11.1363C8.10448 11.3643 8.26497 11.5491 8.46296 11.5491ZM10.8697 14.6954H11.944C12.1431 14.6954 12.3025 14.51 12.3025 14.2826C12.3025 14.0552 12.1426 13.8698 11.944 13.8698H10.8697C10.6722 13.8698 10.5117 14.0552 10.5117 14.2826C10.5117 14.51 10.6722 14.6954 10.8697 14.6954ZM10.8697 13.1222H11.944C12.1431 13.1222 12.3025 12.9374 12.3025 12.71C12.3025 12.4808 12.1426 12.2972 11.944 12.2972H10.8697C10.6722 12.2972 10.5117 12.4808 10.5117 12.71C10.5117 12.9374 10.6722 13.1222 10.8697 13.1222ZM10.8697 11.5491H11.944C12.1431 11.5491 12.3025 11.3637 12.3025 11.1363C12.3025 10.9089 12.1426 10.7235 11.944 10.7235H10.8697C10.6722 10.7235 10.5117 10.9089 10.5117 11.1363C10.5117 11.3643 10.6722 11.5491 10.8697 11.5491Z" fill="url(#paint1_linear)"/>
<defs>
<linearGradient id="paint0_linear" x1="14.625" y1="1.575" x2="2.92496" y2="15.975" gradientUnits="userSpaceOnUse">
<stop stop-color="#1DDBC4"/>
<stop offset="1" stop-color="#3C1D70"/>
</linearGradient>
<linearGradient id="paint1_linear" x1="14.625" y1="1.575" x2="2.92496" y2="15.975" gradientUnits="userSpaceOnUse">
<stop stop-color="#1DDBC4"/>
<stop offset="1" stop-color="#3C1D70"/>
</linearGradient>
</defs>
</svg>
