<svg width="14" height="14" viewBox="0 0 14 14" fill="none" xmlns="http://www.w3.org/2000/svg">
<g clip-path="url(#clip0)">
<path d="M9.68744 8.3076C11.368 5.93452 10.8059 2.64849 8.43284 0.968347C6.05976 -0.7118 2.77374 -0.150145 1.09359 2.22334C-0.586556 4.59642 -0.0249013 7.88204 2.34858 9.56219C4.04238 10.7614 6.28177 10.8537 8.06831 9.79866L11.9501 13.6572C12.3692 14.0984 13.0666 14.1161 13.5078 13.6969C13.949 13.2782 13.9667 12.5808 13.548 12.1396C13.5347 12.1256 13.5219 12.1127 13.5078 12.0995L9.68744 8.3076ZM5.3873 8.66732C3.51204 8.66772 1.99168 7.14856 1.99047 5.2733C1.99007 3.39804 3.50923 1.87767 5.38489 1.87687C7.25774 1.87607 8.7773 3.39282 8.78092 5.26567C8.78413 7.14133 7.26577 8.6641 5.38971 8.66732C5.38891 8.66732 5.38851 8.66732 5.3873 8.66732Z" fill="#FFF9D7"/>
</g>
<defs>
<clipPath id="clip0">
<rect width="14" height="14" fill="white"/>
</clipPath>
</defs>
</svg>
